<mxfile host="65bd71144e">
    <diagram name="第 1 页" id="Kkj5zMZ4AbOu7rI6aeGe">
        <mxGraphModel dx="647" dy="598" grid="1" gridSize="10" guides="1" tooltips="1" connect="1" arrows="1" fold="1" page="1" pageScale="1" pageWidth="1169" pageHeight="827" math="0" shadow="0">
            <root>
                <mxCell id="0"/>
                <mxCell id="1" parent="0"/>
                <mxCell id="pkaoM6uzrCaGdNO4yKLM-1" value="&lt;b&gt;Backend&lt;/b&gt;" style="ellipse;whiteSpace=wrap;html=1;aspect=fixed;fillColor=#647687;fontColor=#ffffff;strokeColor=#314354;" parent="1" vertex="1">
                    <mxGeometry x="80" y="150" width="80" height="80" as="geometry"/>
                </mxCell>
                <mxCell id="pkaoM6uzrCaGdNO4yKLM-2" value="" style="endArrow=classic;html=1;rounded=0;exitX=1;exitY=0.5;exitDx=0;exitDy=0;entryX=0;entryY=0.5;entryDx=0;entryDy=0;" parent="1" source="pkaoM6uzrCaGdNO4yKLM-1" target="pkaoM6uzrCaGdNO4yKLM-3" edge="1">
                    <mxGeometry width="50" height="50" relative="1" as="geometry">
                        <mxPoint x="390" y="490" as="sourcePoint"/>
                        <mxPoint x="520" y="190" as="targetPoint"/>
                    </mxGeometry>
                </mxCell>
                <mxCell id="pkaoM6uzrCaGdNO4yKLM-3" value="&lt;b&gt;DATA&lt;/b&gt;" style="ellipse;whiteSpace=wrap;html=1;aspect=fixed;fillColor=#fa6800;fontColor=#000000;strokeColor=#C73500;" parent="1" vertex="1">
                    <mxGeometry x="190" y="150" width="80" height="80" as="geometry"/>
                </mxCell>
                <mxCell id="pkaoM6uzrCaGdNO4yKLM-4" value="&lt;div&gt;&lt;b&gt;&lt;u&gt;ATTRACTIONS&lt;/u&gt;&lt;/b&gt;&lt;/div&gt;&lt;div&gt;id&lt;/div&gt;&lt;div&gt;rate&lt;/div&gt;&lt;div&gt;name&lt;/div&gt;&lt;div&gt;mrt_id&lt;/div&gt;&lt;div&gt;SERIAL_NO&lt;/div&gt;&lt;div&gt;RowNumber&lt;/div&gt;&lt;div&gt;cat_id&lt;/div&gt;" style="rounded=1;whiteSpace=wrap;html=1;" parent="1" vertex="1">
                    <mxGeometry x="420" y="150" width="150" height="145" as="geometry"/>
                </mxCell>
                <mxCell id="pkaoM6uzrCaGdNO4yKLM-6" value="&lt;b&gt;&lt;u&gt;Files&lt;/u&gt;&lt;/b&gt;&lt;br&gt;id&lt;br&gt;attraction_id&lt;br&gt;file_url" style="rounded=1;whiteSpace=wrap;html=1;" parent="1" vertex="1">
                    <mxGeometry x="720" y="110" width="150" height="80" as="geometry"/>
                </mxCell>
                <mxCell id="pkaoM6uzrCaGdNO4yKLM-11" value="" style="endArrow=classic;html=1;rounded=0;fontStyle=1;exitX=1;exitY=0.5;exitDx=0;exitDy=0;entryX=0.5;entryY=0;entryDx=0;entryDy=0;" parent="1" source="pkaoM6uzrCaGdNO4yKLM-12" target="pkaoM6uzrCaGdNO4yKLM-4" edge="1">
                    <mxGeometry width="50" height="50" relative="1" as="geometry">
                        <mxPoint x="560" y="350" as="sourcePoint"/>
                        <mxPoint x="640" y="350" as="targetPoint"/>
                        <Array as="points">
                            <mxPoint x="390" y="120"/>
                            <mxPoint x="495" y="120"/>
                        </Array>
                    </mxGeometry>
                </mxCell>
                <mxCell id="pkaoM6uzrCaGdNO4yKLM-14" value="" style="endArrow=classic;html=1;rounded=0;fontStyle=1;exitX=1;exitY=0.5;exitDx=0;exitDy=0;entryX=0;entryY=0.5;entryDx=0;entryDy=0;" parent="1" source="pkaoM6uzrCaGdNO4yKLM-3" target="pkaoM6uzrCaGdNO4yKLM-12" edge="1">
                    <mxGeometry width="50" height="50" relative="1" as="geometry">
                        <mxPoint x="270" y="190" as="sourcePoint"/>
                        <mxPoint x="310" y="230" as="targetPoint"/>
                    </mxGeometry>
                </mxCell>
                <mxCell id="pkaoM6uzrCaGdNO4yKLM-12" value="&lt;b&gt;id&lt;/b&gt;" style="rhombus;whiteSpace=wrap;html=1;" parent="1" vertex="1">
                    <mxGeometry x="310" y="170" width="80" height="40" as="geometry"/>
                </mxCell>
                <mxCell id="pkaoM6uzrCaGdNO4yKLM-17" value="&lt;b&gt;&lt;u&gt;MRTS&lt;/u&gt;&lt;/b&gt;&lt;br&gt;mrt_id&lt;br&gt;mrt" style="rounded=1;whiteSpace=wrap;html=1;" parent="1" vertex="1">
                    <mxGeometry x="420" y="310" width="150" height="60" as="geometry"/>
                </mxCell>
                <mxCell id="pkaoM6uzrCaGdNO4yKLM-22" value="&lt;div&gt;&lt;b&gt;&lt;u&gt;LOC&lt;/u&gt;&lt;/b&gt;&lt;/div&gt;&lt;div&gt;&lt;u&gt;id&lt;br&gt;&lt;/u&gt;attraction_id&lt;br&gt;&lt;/div&gt;&lt;div&gt;direction&lt;/div&gt;&lt;div&gt;longitude&lt;br&gt;&lt;/div&gt;&lt;div&gt;latitude&lt;/div&gt;&lt;div&gt;description&lt;/div&gt;&lt;div&gt;address&lt;/div&gt;" style="rounded=1;whiteSpace=wrap;html=1;" parent="1" vertex="1">
                    <mxGeometry x="720" y="430" width="150" height="140" as="geometry"/>
                </mxCell>
                <mxCell id="pkaoM6uzrCaGdNO4yKLM-25" value="&lt;div&gt;&lt;b&gt;&lt;u&gt;Weird Data&lt;/u&gt;&lt;/b&gt;&lt;/div&gt;&lt;div&gt;&lt;u style=&quot;&quot;&gt;id&lt;br&gt;&lt;/u&gt;attraction_id&lt;br&gt;&lt;/div&gt;&lt;div&gt;date&lt;/div&gt;&lt;div&gt;&lt;font color=&quot;#ffffff&quot;&gt;REF_WP&lt;/font&gt;&lt;/div&gt;&lt;div&gt;&lt;font color=&quot;#ffffff&quot;&gt;langinfo&lt;/font&gt;&lt;/div&gt;&lt;div&gt;&lt;span style=&quot;background-color: initial;&quot;&gt;MEMO_TIME&lt;/span&gt;&lt;/div&gt;&lt;div&gt;POI&lt;/div&gt;&lt;div&gt;idpt&lt;/div&gt;&lt;div&gt;avBegin&lt;br&gt;&lt;/div&gt;&lt;div&gt;avEnd&lt;/div&gt;" style="rounded=1;whiteSpace=wrap;html=1;align=center;labelPosition=center;verticalLabelPosition=middle;verticalAlign=middle;" parent="1" vertex="1">
                    <mxGeometry x="720" y="200" width="150" height="220" as="geometry"/>
                </mxCell>
                <mxCell id="pkaoM6uzrCaGdNO4yKLM-26" value="&lt;b&gt;&lt;u&gt;CATS&lt;/u&gt;&lt;/b&gt;&lt;br&gt;cat_id&lt;br&gt;cat" style="rounded=1;whiteSpace=wrap;html=1;" parent="1" vertex="1">
                    <mxGeometry x="420" y="40" width="150" height="60" as="geometry"/>
                </mxCell>
                <mxCell id="pkaoM6uzrCaGdNO4yKLM-29" value="&lt;b&gt;&lt;u&gt;TAG(總表)&lt;br&gt;(addition)&lt;/u&gt;&lt;/b&gt;&lt;br&gt;tag_id&lt;br&gt;tag_name" style="rounded=1;whiteSpace=wrap;html=1;fillColor=#1ba1e2;fontColor=#ffffff;strokeColor=#006EAF;" parent="1" vertex="1">
                    <mxGeometry x="420" y="459" width="150" height="80" as="geometry"/>
                </mxCell>
                <mxCell id="pkaoM6uzrCaGdNO4yKLM-31" value="" style="endArrow=none;html=1;rounded=0;entryX=-0.01;entryY=0.613;entryDx=0;entryDy=0;exitX=1;exitY=0.25;exitDx=0;exitDy=0;entryPerimeter=0;startArrow=classic;startFill=1;endFill=0;" parent="1" source="pkaoM6uzrCaGdNO4yKLM-4" target="pkaoM6uzrCaGdNO4yKLM-6" edge="1">
                    <mxGeometry width="50" height="50" relative="1" as="geometry">
                        <mxPoint x="574" y="179" as="sourcePoint"/>
                        <mxPoint x="650" y="350" as="targetPoint"/>
                        <Array as="points">
                            <mxPoint x="650" y="186"/>
                            <mxPoint x="650" y="160"/>
                        </Array>
                    </mxGeometry>
                </mxCell>
                <mxCell id="pkaoM6uzrCaGdNO4yKLM-36" value="" style="endArrow=classic;html=1;rounded=0;entryX=0.5;entryY=0;entryDx=0;entryDy=0;exitX=0.5;exitY=1;exitDx=0;exitDy=0;" parent="1" source="pkaoM6uzrCaGdNO4yKLM-3" target="pkaoM6uzrCaGdNO4yKLM-34" edge="1">
                    <mxGeometry width="50" height="50" relative="1" as="geometry">
                        <mxPoint x="230" y="230" as="sourcePoint"/>
                        <mxPoint x="450" y="345" as="targetPoint"/>
                        <Array as="points"/>
                    </mxGeometry>
                </mxCell>
                <mxCell id="pkaoM6uzrCaGdNO4yKLM-34" value="&lt;b&gt;MRT&lt;/b&gt;" style="rhombus;whiteSpace=wrap;html=1;" parent="1" vertex="1">
                    <mxGeometry x="190" y="330" width="80" height="40" as="geometry"/>
                </mxCell>
                <mxCell id="pkaoM6uzrCaGdNO4yKLM-37" value="" style="endArrow=classic;html=1;rounded=0;entryX=-0.021;entryY=0.65;entryDx=0;entryDy=0;entryPerimeter=0;" parent="1" source="pkaoM6uzrCaGdNO4yKLM-34" target="pkaoM6uzrCaGdNO4yKLM-17" edge="1">
                    <mxGeometry width="50" height="50" relative="1" as="geometry">
                        <mxPoint x="320" y="380" as="sourcePoint"/>
                        <mxPoint x="370" y="330" as="targetPoint"/>
                    </mxGeometry>
                </mxCell>
                <mxCell id="pkaoM6uzrCaGdNO4yKLM-38" value="" style="endArrow=classic;html=1;rounded=0;entryX=1;entryY=0.5;entryDx=0;entryDy=0;exitX=1.017;exitY=0.577;exitDx=0;exitDy=0;exitPerimeter=0;" parent="1" source="pkaoM6uzrCaGdNO4yKLM-4" target="pkaoM6uzrCaGdNO4yKLM-17" edge="1">
                    <mxGeometry width="50" height="50" relative="1" as="geometry">
                        <mxPoint x="600" y="400" as="sourcePoint"/>
                        <mxPoint x="650" y="350" as="targetPoint"/>
                        <Array as="points">
                            <mxPoint x="620" y="234"/>
                            <mxPoint x="620" y="340"/>
                        </Array>
                    </mxGeometry>
                </mxCell>
                <mxCell id="pkaoM6uzrCaGdNO4yKLM-41" value="" style="endArrow=none;html=1;rounded=0;entryX=0;entryY=0.25;entryDx=0;entryDy=0;endFill=0;" parent="1" target="pkaoM6uzrCaGdNO4yKLM-25" edge="1">
                    <mxGeometry width="50" height="50" relative="1" as="geometry">
                        <mxPoint x="650" y="160" as="sourcePoint"/>
                        <mxPoint x="690" y="250" as="targetPoint"/>
                        <Array as="points">
                            <mxPoint x="650" y="255"/>
                        </Array>
                    </mxGeometry>
                </mxCell>
                <mxCell id="pkaoM6uzrCaGdNO4yKLM-43" value="" style="endArrow=classic;html=1;rounded=0;entryX=0;entryY=0.75;entryDx=0;entryDy=0;exitX=1;exitY=0.5;exitDx=0;exitDy=0;" parent="1" source="pkaoM6uzrCaGdNO4yKLM-45" target="pkaoM6uzrCaGdNO4yKLM-26" edge="1">
                    <mxGeometry width="50" height="50" relative="1" as="geometry">
                        <mxPoint x="230" y="230" as="sourcePoint"/>
                        <mxPoint x="650" y="350" as="targetPoint"/>
                        <Array as="points"/>
                    </mxGeometry>
                </mxCell>
                <mxCell id="pkaoM6uzrCaGdNO4yKLM-44" value="" style="endArrow=classic;html=1;rounded=0;entryX=1;entryY=0.5;entryDx=0;entryDy=0;exitX=1;exitY=0.921;exitDx=0;exitDy=0;exitPerimeter=0;" parent="1" source="pkaoM6uzrCaGdNO4yKLM-4" target="pkaoM6uzrCaGdNO4yKLM-26" edge="1">
                    <mxGeometry width="50" height="50" relative="1" as="geometry">
                        <mxPoint x="570" y="250" as="sourcePoint"/>
                        <mxPoint x="650" y="280" as="targetPoint"/>
                        <Array as="points">
                            <mxPoint x="610" y="284"/>
                            <mxPoint x="610" y="260"/>
                            <mxPoint x="600" y="260"/>
                            <mxPoint x="600" y="170"/>
                            <mxPoint x="610" y="170"/>
                            <mxPoint x="610" y="70"/>
                        </Array>
                    </mxGeometry>
                </mxCell>
                <mxCell id="pkaoM6uzrCaGdNO4yKLM-46" value="" style="endArrow=classic;html=1;rounded=0;exitX=0.5;exitY=0;exitDx=0;exitDy=0;" parent="1" source="pkaoM6uzrCaGdNO4yKLM-3" target="pkaoM6uzrCaGdNO4yKLM-45" edge="1">
                    <mxGeometry width="50" height="50" relative="1" as="geometry">
                        <mxPoint x="230" y="150" as="sourcePoint"/>
                        <mxPoint x="450" y="70" as="targetPoint"/>
                        <Array as="points"/>
                    </mxGeometry>
                </mxCell>
                <mxCell id="pkaoM6uzrCaGdNO4yKLM-45" value="&lt;b&gt;CAT&lt;/b&gt;" style="rhombus;whiteSpace=wrap;html=1;" parent="1" vertex="1">
                    <mxGeometry x="190" y="65" width="80" height="40" as="geometry"/>
                </mxCell>
                <mxCell id="pkaoM6uzrCaGdNO4yKLM-49" value="" style="endArrow=classic;html=1;rounded=0;exitX=0;exitY=1;exitDx=0;exitDy=0;entryX=0.5;entryY=0;entryDx=0;entryDy=0;fillColor=#1ba1e2;strokeColor=#006EAF;strokeWidth=3;" parent="1" source="pkaoM6uzrCaGdNO4yKLM-3" target="pkaoM6uzrCaGdNO4yKLM-48" edge="1">
                    <mxGeometry width="50" height="50" relative="1" as="geometry">
                        <mxPoint x="202" y="218" as="sourcePoint"/>
                        <mxPoint x="450" y="610" as="targetPoint"/>
                        <Array as="points">
                            <mxPoint x="170" y="270"/>
                        </Array>
                    </mxGeometry>
                </mxCell>
                <mxCell id="pkaoM6uzrCaGdNO4yKLM-48" value="&lt;b&gt;TAG&lt;/b&gt;" style="rhombus;whiteSpace=wrap;html=1;fillColor=#1ba1e2;fontColor=#ffffff;strokeColor=#006EAF;" parent="1" vertex="1">
                    <mxGeometry x="130" y="419" width="80" height="40" as="geometry"/>
                </mxCell>
                <mxCell id="pkaoM6uzrCaGdNO4yKLM-50" value="" style="endArrow=classic;html=1;rounded=0;exitX=1;exitY=0.5;exitDx=0;exitDy=0;entryX=0.5;entryY=0;entryDx=0;entryDy=0;fillColor=#1ba1e2;strokeColor=#006EAF;strokeWidth=3;" parent="1" source="pkaoM6uzrCaGdNO4yKLM-48" target="pkaoM6uzrCaGdNO4yKLM-29" edge="1">
                    <mxGeometry width="50" height="50" relative="1" as="geometry">
                        <mxPoint x="310" y="429" as="sourcePoint"/>
                        <mxPoint x="450" y="439" as="targetPoint"/>
                        <Array as="points">
                            <mxPoint x="495" y="439"/>
                        </Array>
                    </mxGeometry>
                </mxCell>
                <mxCell id="pkaoM6uzrCaGdNO4yKLM-51" value="" style="endArrow=classic;html=1;rounded=0;entryX=0;entryY=0.5;entryDx=0;entryDy=0;fillColor=#1ba1e2;strokeColor=#006EAF;strokeWidth=3;exitX=1;exitY=0.75;exitDx=0;exitDy=0;" parent="1" source="vJz8S8eHZIbIrmxKy_8s-3" target="pkaoM6uzrCaGdNO4yKLM-12" edge="1">
                    <mxGeometry width="50" height="50" relative="1" as="geometry">
                        <mxPoint x="570" y="710" as="sourcePoint"/>
                        <mxPoint x="650" y="380" as="targetPoint"/>
                        <Array as="points">
                            <mxPoint x="590" y="630"/>
                            <mxPoint x="590" y="420"/>
                            <mxPoint x="310" y="420"/>
                            <mxPoint x="310" y="370"/>
                            <mxPoint x="300" y="370"/>
                            <mxPoint x="300" y="330"/>
                            <mxPoint x="310" y="330"/>
                        </Array>
                    </mxGeometry>
                </mxCell>
                <mxCell id="2" value="&lt;div&gt;&lt;b&gt;&lt;u&gt;AUTH&lt;br&gt;&lt;/u&gt;&lt;/b&gt;id&lt;/div&gt;&lt;div&gt;username&lt;/div&gt;&lt;div&gt;passwoed&lt;/div&gt;&lt;div&gt;name&lt;/div&gt;&lt;div&gt;email&lt;/div&gt;" style="rounded=1;whiteSpace=wrap;html=1;fillColor=#d80073;fontColor=#ffffff;strokeColor=#A50040;" parent="1" vertex="1">
                    <mxGeometry x="230" y="530" width="150" height="110" as="geometry"/>
                </mxCell>
                <mxCell id="3" value="" style="endArrow=none;html=1;rounded=0;fillColor=#d80073;strokeColor=#A50040;strokeWidth=3;exitX=0.5;exitY=0;exitDx=0;exitDy=0;entryX=1;entryY=1;entryDx=0;entryDy=0;endFill=0;startArrow=classic;startFill=1;" parent="1" source="2" target="pkaoM6uzrCaGdNO4yKLM-3" edge="1">
                    <mxGeometry width="50" height="50" relative="1" as="geometry">
                        <mxPoint x="579.9999999999998" y="530" as="sourcePoint"/>
                        <mxPoint x="265.8399999999999" y="80.16000000000008" as="targetPoint"/>
                        <Array as="points">
                            <mxPoint x="305" y="470"/>
                            <mxPoint x="305" y="460"/>
                            <mxPoint x="290" y="460"/>
                            <mxPoint x="280" y="460"/>
                            <mxPoint x="280" y="420"/>
                            <mxPoint x="290" y="420"/>
                            <mxPoint x="290" y="370"/>
                            <mxPoint x="280" y="370"/>
                            <mxPoint x="280" y="330"/>
                            <mxPoint x="290" y="330"/>
                            <mxPoint x="290" y="270"/>
                        </Array>
                    </mxGeometry>
                </mxCell>
                <mxCell id="vJz8S8eHZIbIrmxKy_8s-3" value="&lt;b&gt;&lt;u&gt;TAG&lt;br&gt;(addition)&lt;/u&gt;&lt;/b&gt;&lt;br&gt;&lt;b&gt;&lt;u&gt;(Saperated)&lt;br&gt;&lt;/u&gt;&lt;/b&gt;tag_id&lt;br&gt;MAIN_id" style="rounded=1;whiteSpace=wrap;html=1;fillColor=#1ba1e2;fontColor=#ffffff;strokeColor=#006EAF;" parent="1" vertex="1">
                    <mxGeometry x="420" y="570" width="150" height="80" as="geometry"/>
                </mxCell>
                <mxCell id="vJz8S8eHZIbIrmxKy_8s-4" value="" style="endArrow=classic;html=1;rounded=0;exitX=0.5;exitY=1;exitDx=0;exitDy=0;fillColor=#1ba1e2;strokeColor=#006EAF;strokeWidth=3;" parent="1" source="pkaoM6uzrCaGdNO4yKLM-29" target="vJz8S8eHZIbIrmxKy_8s-3" edge="1">
                    <mxGeometry width="50" height="50" relative="1" as="geometry">
                        <mxPoint x="220" y="449" as="sourcePoint"/>
                        <mxPoint x="505" y="469" as="targetPoint"/>
                        <Array as="points"/>
                    </mxGeometry>
                </mxCell>
                <mxCell id="vJz8S8eHZIbIrmxKy_8s-5" value="" style="endArrow=none;html=1;rounded=0;entryX=0;entryY=0.25;entryDx=0;entryDy=0;endFill=0;" parent="1" target="pkaoM6uzrCaGdNO4yKLM-22" edge="1">
                    <mxGeometry width="50" height="50" relative="1" as="geometry">
                        <mxPoint x="650" y="250" as="sourcePoint"/>
                        <mxPoint x="730" y="265" as="targetPoint"/>
                        <Array as="points">
                            <mxPoint x="650" y="465"/>
                        </Array>
                    </mxGeometry>
                </mxCell>
            </root>
        </mxGraphModel>
    </diagram>
</mxfile>